<svg width="192" height="42" viewBox="0 0 192 42" fill="none" xmlns="http://www.w3.org/2000/svg">
<path fill-rule="evenodd" clip-rule="evenodd" d="M4.2326 8.24015C4.2326 8.54196 9.05917 16.923 9.796 17.9004C9.85941 17.9843 10.4698 17.5118 11.1524 16.85L12.3937 15.647L8.58484 11.8262C5.07393 8.30426 4.2326 7.61136 4.2326 8.24015ZM35.0518 12.9364C31.2525 15.6343 28.0842 17.787 28.0112 17.7204C27.9379 17.6542 28.1373 16.9521 28.454 16.1607C29.1759 14.3562 29.1806 13.5209 28.4731 12.8131C27.3881 11.7284 26.4695 12.1747 23.2441 15.3562C20.1463 18.4112 19.6999 18.4888 21.1042 15.7281C21.3716 15.2017 21.5905 14.4695 21.5905 14.1004C21.5905 13.1 20.3542 12.1336 19.3907 12.3805C18.5632 12.5931 -0.300653 31.2213 0.00364185 31.526C0.0957452 31.6177 3.35656 29.487 7.24969 26.7908C11.1432 24.0947 14.3803 21.9384 14.4433 21.9993C14.5064 22.0599 14.2797 22.8941 13.9392 23.8524C13.2424 25.8142 13.4103 26.6576 14.5864 27.1015C15.726 27.5315 16.3994 27.1033 19.746 23.8187L22.6837 20.9355L21.7829 22.9827C21.2873 24.1085 20.882 25.2336 20.882 25.483C20.882 26.3647 21.8339 27.2233 22.8113 27.2233C23.6317 27.2233 25.388 25.6356 33.1452 17.8827C38.2853 12.7454 42.4909 8.42116 42.4909 8.2738C42.4909 8.12643 42.3712 8.01166 42.2252 8.01874C42.0793 8.02583 38.851 10.2388 35.0518 12.9364ZM31.4977 22.7188L30.2947 23.9597L34.1772 27.8546C36.3125 29.9964 38.1093 31.6004 38.1698 31.4187C38.2478 31.1852 33.6206 22.7524 32.7609 21.5608C32.7279 21.5151 32.1594 22.0362 31.4977 22.7188Z" fill="white"/>
<path d="M51.5016 8.18113H57.5697L63.9788 23.8175H64.2516L70.6606 8.18113H76.7288V31.4539H71.9561V16.3061H71.7629L65.7402 31.3402H62.4902L56.4675 16.2493H56.2743V31.4539H51.5016V8.18113ZM85.6692 31.7834C84.5555 31.7834 83.5631 31.5902 82.6919 31.2039C81.8207 30.8099 81.1313 30.2304 80.6237 29.4652C80.1237 28.6925 79.8737 27.7304 79.8737 26.5789C79.8737 25.6092 80.0517 24.7948 80.4078 24.1357C80.7639 23.4766 81.2487 22.9463 81.8624 22.5448C82.476 22.1433 83.173 21.8402 83.9533 21.6357C84.7411 21.4311 85.5669 21.2872 86.4305 21.2039C87.4457 21.0978 88.2639 20.9993 88.8851 20.9084C89.5063 20.8099 89.957 20.666 90.2374 20.4766C90.5177 20.2872 90.6578 20.0069 90.6578 19.6357V19.5675C90.6578 18.8478 90.4305 18.291 89.976 17.897C89.529 17.5031 88.8927 17.3061 88.0669 17.3061C87.1957 17.3061 86.5025 17.4993 85.9874 17.8857C85.4722 18.2645 85.1313 18.7417 84.9646 19.3175L80.4874 18.9539C80.7146 17.8933 81.1616 16.9766 81.8283 16.2039C82.4949 15.4236 83.3548 14.8251 84.4078 14.4084C85.4684 13.9842 86.6957 13.772 88.0896 13.772C89.0593 13.772 89.9874 13.8857 90.8737 14.1129C91.7677 14.3402 92.5593 14.6925 93.2487 15.1698C93.9457 15.647 94.4949 16.2607 94.8964 17.0107C95.298 17.7531 95.4987 18.6433 95.4987 19.6811V31.4539H90.9078V29.0334H90.7714C90.4911 29.5789 90.1161 30.0599 89.6464 30.4766C89.1767 30.8857 88.6124 31.2076 87.9533 31.4425C87.2942 31.6698 86.5328 31.7834 85.6692 31.7834ZM87.0555 28.4425C87.7677 28.4425 88.3964 28.3023 88.9419 28.022C89.4874 27.7342 89.9154 27.3478 90.226 26.8629C90.5366 26.3781 90.6919 25.8289 90.6919 25.2152V23.3629C90.5404 23.4614 90.332 23.5523 90.0669 23.6357C89.8093 23.7114 89.5177 23.7834 89.1919 23.8516C88.8661 23.9122 88.5404 23.969 88.2146 24.022C87.8889 24.0675 87.5934 24.1092 87.3283 24.147C86.7601 24.2304 86.2639 24.3629 85.8396 24.5448C85.4154 24.7266 85.0858 24.9728 84.851 25.2834C84.6161 25.5864 84.4987 25.9652 84.4987 26.4198C84.4987 27.0789 84.7374 27.5826 85.2146 27.9311C85.6995 28.272 86.3131 28.4425 87.0555 28.4425ZM99.2544 31.4539V13.9993H103.948V17.0448H104.129C104.448 15.9614 104.982 15.1433 105.732 14.5902C106.482 14.0296 107.345 13.7493 108.323 13.7493C108.565 13.7493 108.826 13.7645 109.107 13.7948C109.387 13.8251 109.633 13.8667 109.845 13.9198V18.2152C109.618 18.147 109.304 18.0864 108.902 18.0334C108.501 17.9804 108.133 17.9539 107.8 17.9539C107.088 17.9539 106.451 18.1092 105.891 18.4198C105.338 18.7228 104.898 19.147 104.573 19.6925C104.254 20.2379 104.095 20.8667 104.095 21.5789V31.4539H99.2544ZM112.257 31.4539V28.5675L120.803 17.9879V17.8629H112.553V13.9993H126.632V17.147L118.61 27.4652V27.5902H126.928V31.4539H112.257ZM130.72 31.4539V8.18113H135.561V16.9311H135.709C135.921 16.4614 136.228 15.9842 136.629 15.4993C137.038 15.0069 137.569 14.5978 138.22 14.272C138.879 13.9387 139.698 13.772 140.675 13.772C141.948 13.772 143.122 14.1054 144.198 14.772C145.273 15.4311 146.133 16.4273 146.777 17.7607C147.421 19.0864 147.743 20.7493 147.743 22.7493C147.743 24.6963 147.429 26.3402 146.8 27.6811C146.179 29.0145 145.33 30.0258 144.254 30.7152C143.186 31.397 141.989 31.7379 140.663 31.7379C139.724 31.7379 138.925 31.5826 138.266 31.272C137.614 30.9614 137.08 30.5713 136.663 30.1016C136.247 29.6243 135.929 29.1433 135.709 28.6584H135.493V31.4539H130.72ZM135.459 22.7266C135.459 23.7645 135.603 24.6698 135.891 25.4425C136.179 26.2152 136.595 26.8175 137.141 27.2493C137.686 27.6736 138.349 27.8857 139.129 27.8857C139.917 27.8857 140.584 27.6698 141.129 27.2379C141.675 26.7986 142.088 26.1925 142.368 25.4198C142.656 24.6395 142.8 23.7417 142.8 22.7266C142.8 21.719 142.66 20.8326 142.379 20.0675C142.099 19.3023 141.686 18.7039 141.141 18.272C140.595 17.8402 139.925 17.6243 139.129 17.6243C138.342 17.6243 137.675 17.8326 137.129 18.2493C136.592 18.666 136.179 19.2569 135.891 20.022C135.603 20.7872 135.459 21.6887 135.459 22.7266ZM155.95 31.7834C154.837 31.7834 153.844 31.5902 152.973 31.2039C152.102 30.8099 151.413 30.2304 150.905 29.4652C150.405 28.6925 150.155 27.7304 150.155 26.5789C150.155 25.6092 150.333 24.7948 150.689 24.1357C151.045 23.4766 151.53 22.9463 152.144 22.5448C152.757 22.1433 153.454 21.8402 154.235 21.6357C155.022 21.4311 155.848 21.2872 156.712 21.2039C157.727 21.0978 158.545 20.9993 159.166 20.9084C159.788 20.8099 160.238 20.666 160.519 20.4766C160.799 20.2872 160.939 20.0069 160.939 19.6357V19.5675C160.939 18.8478 160.712 18.291 160.257 17.897C159.81 17.5031 159.174 17.3061 158.348 17.3061C157.477 17.3061 156.784 17.4993 156.269 17.8857C155.753 18.2645 155.413 18.7417 155.246 19.3175L150.769 18.9539C150.996 17.8933 151.443 16.9766 152.11 16.2039C152.776 15.4236 153.636 14.8251 154.689 14.4084C155.75 13.9842 156.977 13.772 158.371 13.772C159.341 13.772 160.269 13.8857 161.155 14.1129C162.049 14.3402 162.841 14.6925 163.53 15.1698C164.227 15.647 164.776 16.2607 165.178 17.0107C165.579 17.7531 165.78 18.6433 165.78 19.6811V31.4539H161.189V29.0334H161.053C160.772 29.5789 160.397 30.0599 159.928 30.4766C159.458 30.8857 158.894 31.2076 158.235 31.4425C157.575 31.6698 156.814 31.7834 155.95 31.7834ZM157.337 28.4425C158.049 28.4425 158.678 28.3023 159.223 28.022C159.769 27.7342 160.197 27.3478 160.507 26.8629C160.818 26.3781 160.973 25.8289 160.973 25.2152V23.3629C160.822 23.4614 160.613 23.5523 160.348 23.6357C160.091 23.7114 159.799 23.7834 159.473 23.8516C159.147 23.9122 158.822 23.969 158.496 24.022C158.17 24.0675 157.875 24.1092 157.61 24.147C157.041 24.2304 156.545 24.3629 156.121 24.5448C155.697 24.7266 155.367 24.9728 155.132 25.2834C154.897 25.5864 154.78 25.9652 154.78 26.4198C154.78 27.0789 155.019 27.5826 155.496 27.9311C155.981 28.272 156.594 28.4425 157.337 28.4425ZM174.377 21.3629V31.4539H169.536V13.9993H174.149V17.0789H174.354C174.74 16.0637 175.388 15.2607 176.297 14.6698C177.206 14.0713 178.308 13.772 179.604 13.772C180.816 13.772 181.873 14.0372 182.774 14.5675C183.676 15.0978 184.377 15.8554 184.877 16.8402C185.377 17.8175 185.627 18.9842 185.627 20.3402V31.4539H180.786V21.2039C180.793 20.1357 180.52 19.3023 179.967 18.7039C179.414 18.0978 178.653 17.7948 177.683 17.7948C177.032 17.7948 176.456 17.9349 175.956 18.2152C175.464 18.4955 175.077 18.9046 174.797 19.4425C174.524 19.9728 174.384 20.6129 174.377 21.3629Z" fill="white"/>
</svg>
