<svg width="800" height="442" viewBox="0 0 800 442" fill="none" xmlns="http://www.w3.org/2000/svg">
<path fill-rule="evenodd" clip-rule="evenodd" d="M79.6895 4.16825C79.6895 9.84244 170.562 167.408 184.435 185.782C185.629 187.361 197.12 178.476 209.972 166.036L233.342 143.419L161.632 71.5858C95.5297 5.37367 79.6895 -7.65297 79.6895 4.16825ZM659.94 92.4578C588.409 143.179 528.756 183.651 527.383 182.399C526.002 181.154 529.757 167.954 535.719 153.076C549.312 119.15 549.399 103.447 536.08 90.1401C515.651 69.7477 498.357 78.1391 437.63 137.951C379.305 195.386 370.902 196.844 397.34 144.944C402.375 135.047 406.497 121.282 406.497 114.342C406.497 95.5346 383.22 77.3666 365.079 82.0085C349.499 86.0044 -5.66057 436.219 0.0685672 441.946C1.80265 443.671 63.1958 403.612 136.494 352.924C209.799 302.236 270.745 261.698 271.932 262.843C273.12 263.982 268.851 279.666 262.442 297.681C249.323 334.563 252.484 350.42 274.627 358.765C296.083 366.85 308.762 358.798 371.769 297.048L427.079 242.844L410.119 281.331C400.788 302.496 393.158 323.648 393.158 328.336C393.158 344.912 411.079 361.056 429.48 361.056C444.927 361.056 477.995 331.206 624.044 185.449C720.819 88.8681 800 7.57143 800 4.80093C800 2.03044 797.746 -0.127347 794.998 0.00584991C792.25 0.139047 731.47 41.7431 659.94 92.4578ZM593.024 276.369L570.374 299.699L643.473 372.924C683.677 413.189 717.504 443.345 718.645 439.928C720.112 435.54 632.995 277.002 616.808 254.598C616.187 253.739 605.483 263.536 593.024 276.369Z" fill="#23262F"/>
</svg>
