<svg width="192" height="42" viewBox="0 0 192 42" fill="none" xmlns="http://www.w3.org/2000/svg">
<path fill-rule="evenodd" clip-rule="evenodd" d="M4.2326 7.78629C4.2326 8.0881 9.05917 16.4692 9.796 17.4465C9.85941 17.5305 10.4698 17.0579 11.1524 16.3962L12.3937 15.1932L8.58484 11.3723C5.07393 7.85041 4.2326 7.15751 4.2326 7.78629ZM35.0518 12.4825C31.2525 15.1804 28.0842 17.3332 28.0112 17.2666C27.9379 17.2003 28.1373 16.4982 28.454 15.7068C29.1759 13.9023 29.1806 13.067 28.4731 12.3592C27.3881 11.2745 26.4695 11.7209 23.2441 14.9023C20.1463 17.9573 19.6999 18.0349 21.1042 15.2743C21.3716 14.7479 21.5905 14.0157 21.5905 13.6465C21.5905 12.6462 20.3542 11.6798 19.3907 11.9267C18.5632 12.1392 -0.300653 30.7675 0.00364185 31.0721C0.0957452 31.1639 3.35656 29.0331 7.24969 26.337C11.1432 23.6408 14.3803 21.4845 14.4433 21.5455C14.5064 21.606 14.2797 22.4403 13.9392 23.3985C13.2424 25.3603 13.4103 26.2038 14.5864 26.6476C15.726 27.0777 16.3994 26.6494 19.746 23.3649L22.6837 20.4817L21.7829 22.5288C21.2873 23.6546 20.882 24.7797 20.882 25.0291C20.882 25.9108 21.8339 26.7695 22.8113 26.7695C23.6317 26.7695 25.388 25.1818 33.1452 17.4288C38.2853 12.2916 42.4909 7.96731 42.4909 7.81994C42.4909 7.67258 42.3712 7.5578 42.2252 7.56489C42.0793 7.57197 38.851 9.78493 35.0518 12.4825ZM31.4977 22.2649L30.2947 23.5058L34.1772 27.4008C36.3125 29.5425 38.1093 31.1465 38.1698 30.9648C38.2478 30.7314 33.6206 22.2986 32.7609 21.1069C32.7279 21.0612 32.1594 21.5823 31.4977 22.2649Z" fill="#23262F"/>
<path d="M51.5016 7.72727H57.5697L63.9788 23.3636H64.2516L70.6606 7.72727H76.7288V31H71.9561V15.8523H71.7629L65.7402 30.8864H62.4902L56.4675 15.7955H56.2743V31H51.5016V7.72727ZM85.6692 31.3295C84.5555 31.3295 83.5631 31.1364 82.6919 30.75C81.8207 30.3561 81.1313 29.7765 80.6237 29.0114C80.1237 28.2386 79.8737 27.2765 79.8737 26.125C79.8737 25.1553 80.0517 24.3409 80.4078 23.6818C80.7639 23.0227 81.2487 22.4924 81.8624 22.0909C82.476 21.6894 83.173 21.3864 83.9533 21.1818C84.7411 20.9773 85.5669 20.8333 86.4305 20.75C87.4457 20.6439 88.2639 20.5455 88.8851 20.4545C89.5063 20.3561 89.957 20.2121 90.2374 20.0227C90.5177 19.8333 90.6578 19.553 90.6578 19.1818V19.1136C90.6578 18.3939 90.4305 17.8371 89.976 17.4432C89.529 17.0492 88.8927 16.8523 88.0669 16.8523C87.1957 16.8523 86.5025 17.0455 85.9874 17.4318C85.4722 17.8106 85.1313 18.2879 84.9646 18.8636L80.4874 18.5C80.7146 17.4394 81.1616 16.5227 81.8283 15.75C82.4949 14.9697 83.3548 14.3712 84.4078 13.9545C85.4684 13.5303 86.6957 13.3182 88.0896 13.3182C89.0593 13.3182 89.9874 13.4318 90.8737 13.6591C91.7677 13.8864 92.5593 14.2386 93.2487 14.7159C93.9457 15.1932 94.4949 15.8068 94.8964 16.5568C95.298 17.2992 95.4987 18.1894 95.4987 19.2273V31H90.9078V28.5795H90.7714C90.4911 29.125 90.1161 29.6061 89.6464 30.0227C89.1767 30.4318 88.6124 30.7538 87.9533 30.9886C87.2942 31.2159 86.5328 31.3295 85.6692 31.3295ZM87.0555 27.9886C87.7677 27.9886 88.3964 27.8485 88.9419 27.5682C89.4874 27.2803 89.9154 26.8939 90.226 26.4091C90.5366 25.9242 90.6919 25.375 90.6919 24.7614V22.9091C90.5404 23.0076 90.332 23.0985 90.0669 23.1818C89.8093 23.2576 89.5177 23.3295 89.1919 23.3977C88.8661 23.4583 88.5404 23.5152 88.2146 23.5682C87.8889 23.6136 87.5934 23.6553 87.3283 23.6932C86.7601 23.7765 86.2639 23.9091 85.8396 24.0909C85.4154 24.2727 85.0858 24.5189 84.851 24.8295C84.6161 25.1326 84.4987 25.5114 84.4987 25.9659C84.4987 26.625 84.7374 27.1288 85.2146 27.4773C85.6995 27.8182 86.3131 27.9886 87.0555 27.9886ZM99.2544 31V13.5455H103.948V16.5909H104.129C104.448 15.5076 104.982 14.6894 105.732 14.1364C106.482 13.5758 107.345 13.2955 108.323 13.2955C108.565 13.2955 108.826 13.3106 109.107 13.3409C109.387 13.3712 109.633 13.4129 109.845 13.4659V17.7614C109.618 17.6932 109.304 17.6326 108.902 17.5795C108.501 17.5265 108.133 17.5 107.8 17.5C107.088 17.5 106.451 17.6553 105.891 17.9659C105.338 18.2689 104.898 18.6932 104.573 19.2386C104.254 19.7841 104.095 20.4129 104.095 21.125V31H99.2544ZM112.257 31V28.1136L120.803 17.5341V17.4091H112.553V13.5455H126.632V16.6932L118.61 27.0114V27.1364H126.928V31H112.257ZM130.72 31V7.72727H135.561V16.4773H135.709C135.921 16.0076 136.228 15.5303 136.629 15.0455C137.038 14.553 137.569 14.1439 138.22 13.8182C138.879 13.4848 139.698 13.3182 140.675 13.3182C141.948 13.3182 143.122 13.6515 144.198 14.3182C145.273 14.9773 146.133 15.9735 146.777 17.3068C147.421 18.6326 147.743 20.2955 147.743 22.2955C147.743 24.2424 147.429 25.8864 146.8 27.2273C146.179 28.5606 145.33 29.572 144.254 30.2614C143.186 30.9432 141.989 31.2841 140.663 31.2841C139.724 31.2841 138.925 31.1288 138.266 30.8182C137.614 30.5076 137.08 30.1174 136.663 29.6477C136.247 29.1705 135.929 28.6894 135.709 28.2045H135.493V31H130.72ZM135.459 22.2727C135.459 23.3106 135.603 24.2159 135.891 24.9886C136.179 25.7614 136.595 26.3636 137.141 26.7955C137.686 27.2197 138.349 27.4318 139.129 27.4318C139.917 27.4318 140.584 27.2159 141.129 26.7841C141.675 26.3447 142.088 25.7386 142.368 24.9659C142.656 24.1856 142.8 23.2879 142.8 22.2727C142.8 21.2652 142.66 20.3788 142.379 19.6136C142.099 18.8485 141.686 18.25 141.141 17.8182C140.595 17.3864 139.925 17.1705 139.129 17.1705C138.342 17.1705 137.675 17.3788 137.129 17.7955C136.592 18.2121 136.179 18.803 135.891 19.5682C135.603 20.3333 135.459 21.2348 135.459 22.2727ZM155.95 31.3295C154.837 31.3295 153.844 31.1364 152.973 30.75C152.102 30.3561 151.413 29.7765 150.905 29.0114C150.405 28.2386 150.155 27.2765 150.155 26.125C150.155 25.1553 150.333 24.3409 150.689 23.6818C151.045 23.0227 151.53 22.4924 152.144 22.0909C152.757 21.6894 153.454 21.3864 154.235 21.1818C155.022 20.9773 155.848 20.8333 156.712 20.75C157.727 20.6439 158.545 20.5455 159.166 20.4545C159.788 20.3561 160.238 20.2121 160.519 20.0227C160.799 19.8333 160.939 19.553 160.939 19.1818V19.1136C160.939 18.3939 160.712 17.8371 160.257 17.4432C159.81 17.0492 159.174 16.8523 158.348 16.8523C157.477 16.8523 156.784 17.0455 156.269 17.4318C155.753 17.8106 155.413 18.2879 155.246 18.8636L150.769 18.5C150.996 17.4394 151.443 16.5227 152.11 15.75C152.776 14.9697 153.636 14.3712 154.689 13.9545C155.75 13.5303 156.977 13.3182 158.371 13.3182C159.341 13.3182 160.269 13.4318 161.155 13.6591C162.049 13.8864 162.841 14.2386 163.53 14.7159C164.227 15.1932 164.776 15.8068 165.178 16.5568C165.579 17.2992 165.78 18.1894 165.78 19.2273V31H161.189V28.5795H161.053C160.772 29.125 160.397 29.6061 159.928 30.0227C159.458 30.4318 158.894 30.7538 158.235 30.9886C157.575 31.2159 156.814 31.3295 155.95 31.3295ZM157.337 27.9886C158.049 27.9886 158.678 27.8485 159.223 27.5682C159.769 27.2803 160.197 26.8939 160.507 26.4091C160.818 25.9242 160.973 25.375 160.973 24.7614V22.9091C160.822 23.0076 160.613 23.0985 160.348 23.1818C160.091 23.2576 159.799 23.3295 159.473 23.3977C159.147 23.4583 158.822 23.5152 158.496 23.5682C158.17 23.6136 157.875 23.6553 157.61 23.6932C157.041 23.7765 156.545 23.9091 156.121 24.0909C155.697 24.2727 155.367 24.5189 155.132 24.8295C154.897 25.1326 154.78 25.5114 154.78 25.9659C154.78 26.625 155.019 27.1288 155.496 27.4773C155.981 27.8182 156.594 27.9886 157.337 27.9886ZM174.377 20.9091V31H169.536V13.5455H174.149V16.625H174.354C174.74 15.6098 175.388 14.8068 176.297 14.2159C177.206 13.6174 178.308 13.3182 179.604 13.3182C180.816 13.3182 181.873 13.5833 182.774 14.1136C183.676 14.6439 184.377 15.4015 184.877 16.3864C185.377 17.3636 185.627 18.5303 185.627 19.8864V31H180.786V20.75C180.793 19.6818 180.52 18.8485 179.967 18.25C179.414 17.6439 178.653 17.3409 177.683 17.3409C177.032 17.3409 176.456 17.4811 175.956 17.7614C175.464 18.0417 175.077 18.4508 174.797 18.9886C174.524 19.5189 174.384 20.1591 174.377 20.9091Z" fill="#23262F"/>
</svg>
